<?xml version="1.0" encoding="UTF-8" standalone="no"?>
<!-- Created with Inkscape (http://www.inkscape.org/) -->

<svg
   width="210mm"
   height="297mm"
   viewBox="0 0 210 297"
   version="1.1"
   id="svg1"
   inkscape:version="1.3.2 (091e20e, 2023-11-25, custom)"
   sodipodi:docname="hollo_hunt_final_1.svg"
   xmlns:inkscape="http://www.inkscape.org/namespaces/inkscape"
   xmlns:sodipodi="http://sodipodi.sourceforge.net/DTD/sodipodi-0.dtd"
   xmlns:xlink="http://www.w3.org/1999/xlink"
   xmlns="http://www.w3.org/2000/svg"
   xmlns:svg="http://www.w3.org/2000/svg">
  <sodipodi:namedview
     id="namedview1"
     pagecolor="#ffffff"
     bordercolor="#000000"
     borderopacity="0.25"
     inkscape:showpageshadow="2"
     inkscape:pageopacity="0.0"
     inkscape:pagecheckerboard="0"
     inkscape:deskcolor="#d1d1d1"
     inkscape:document-units="mm"
     inkscape:zoom="0.72426347"
     inkscape:cx="340.34576"
     inkscape:cy="474.27492"
     inkscape:window-width="1920"
     inkscape:window-height="1009"
     inkscape:window-x="-8"
     inkscape:window-y="-8"
     inkscape:window-maximized="1"
     inkscape:current-layer="layer1" />
  <defs
     id="defs1">
    <inkscape:perspective
       sodipodi:type="inkscape:persp3d"
       inkscape:vp_x="110.20347 : 81.226061 : 1"
       inkscape:vp_y="0 : 323.43436 : 0"
       inkscape:vp_z="227.62493 : 81.226061 : 1"
       inkscape:persp3d-origin="168.9142 : 65.21606 : 1"
       id="perspective49" />
    <linearGradient
       id="linearGradient20"
       inkscape:collect="always">
      <stop
         style="stop-color:#4a00c7;stop-opacity:1;"
         offset="0"
         id="stop20" />
      <stop
         style="stop-color:#4a00c7;stop-opacity:0;"
         offset="1"
         id="stop21" />
    </linearGradient>
    <linearGradient
       id="swatch19">
      <stop
         style="stop-color:#04dfbf;stop-opacity:1;"
         offset="0"
         id="stop19" />
    </linearGradient>
    <inkscape:perspective
       sodipodi:type="inkscape:persp3d"
       inkscape:vp_x="-32.040947 : 170.82059 : 1"
       inkscape:vp_y="0 : 908.47414 : 0"
       inkscape:vp_z="219.86217 : 166.83805 : 1"
       inkscape:persp3d-origin="93.691123 : 121.86858 : 1"
       id="perspective29" />
    <linearGradient
       inkscape:collect="always"
       xlink:href="#linearGradient20"
       id="linearGradient21"
       x1="8.6150087"
       y1="88.591208"
       x2="202.58749"
       y2="88.591208"
       gradientUnits="userSpaceOnUse" />
    <linearGradient
       inkscape:collect="always"
       xlink:href="#linearGradient20"
       id="linearGradient22"
       gradientUnits="userSpaceOnUse"
       x1="8.6150087"
       y1="88.591208"
       x2="202.58749"
       y2="88.591208"
       gradientTransform="matrix(0.87946706,0,0,0.99539743,11.99781,31.642067)" />
    <linearGradient
       inkscape:collect="always"
       xlink:href="#linearGradient20"
       id="linearGradient23"
       gradientUnits="userSpaceOnUse"
       x1="8.6150087"
       y1="88.591208"
       x2="202.58749"
       y2="88.591208"
       gradientTransform="matrix(0.87946706,0,0,0.99539743,11.99781,31.642067)" />
    <linearGradient
       inkscape:collect="always"
       xlink:href="#linearGradient20"
       id="linearGradient24"
       gradientUnits="userSpaceOnUse"
       x1="8.6150087"
       y1="88.591208"
       x2="202.58749"
       y2="88.591208"
       gradientTransform="matrix(0.87946706,0,0,0.99539743,11.99781,31.642067)" />
    <linearGradient
       inkscape:collect="always"
       xlink:href="#linearGradient20"
       id="linearGradient25"
       gradientUnits="userSpaceOnUse"
       x1="8.6150087"
       y1="88.591208"
       x2="202.58749"
       y2="88.591208"
       gradientTransform="matrix(0.87946706,0,0,0.99539743,11.99781,31.642067)" />
    <linearGradient
       inkscape:collect="always"
       xlink:href="#linearGradient20"
       id="linearGradient26"
       gradientUnits="userSpaceOnUse"
       x1="8.6150087"
       y1="88.591208"
       x2="202.58749"
       y2="88.591208"
       gradientTransform="matrix(0.87946706,0,0,0.99539743,11.99781,31.642067)" />
    <linearGradient
       inkscape:collect="always"
       xlink:href="#linearGradient20"
       id="linearGradient27"
       gradientUnits="userSpaceOnUse"
       x1="8.6150087"
       y1="88.591208"
       x2="202.58749"
       y2="88.591208"
       gradientTransform="matrix(0.87946706,0,0,0.99539743,11.99781,31.642067)" />
  </defs>
  <g
     inkscape:label="Layer 1"
     inkscape:groupmode="layer"
     id="layer1">
    <g
       id="g1">
      <g
         sodipodi:type="inkscape:box3d"
         id="g29"
         style="fill:url(#linearGradient21)"
         inkscape:perspectiveID="#perspective29"
         inkscape:corner0="-0.34629596 : 0.086880784 : 0 : 1"
         inkscape:corner7="1.4359429 : 0.030030793 : 0.65754503 : 1">
        <path
           sodipodi:type="inkscape:box3dside"
           id="path34"
           style="fill:url(#linearGradient22);fill-opacity:1;fill-rule:evenodd;stroke:none;stroke-linejoin:round"
           inkscape:box3dsidetype="11"
           d="M 190.16681,105.31516 62.147142,117.3356 v 16.69531 L 190.16681,144.7026 Z"
           points="62.147142,117.3356 62.147142,134.03091 190.16681,144.7026 190.16681,105.31516 " />
        <path
           sodipodi:type="inkscape:box3dside"
           id="path32"
           style="fill:url(#linearGradient23);fill-opacity:1;fill-rule:evenodd;stroke:none;stroke-linejoin:round"
           inkscape:box3dsidetype="14"
           d="m 19.574414,113.87332 v 21.20196 l 42.572728,-1.04437 V 117.3356 Z"
           points="19.574414,135.07528 62.147142,134.03091 62.147142,117.3356 19.574414,113.87332 " />
        <path
           sodipodi:type="inkscape:box3dside"
           id="path33"
           style="fill:url(#linearGradient24);fill-opacity:1;fill-rule:evenodd;stroke:none;stroke-linejoin:round"
           inkscape:box3dsidetype="13"
           d="M 160.29697,159.32868 19.574414,135.07528 62.147142,134.03091 190.16681,144.7026 Z"
           points="19.574414,135.07528 62.147142,134.03091 190.16681,144.7026 160.29697,159.32868 " />
        <path
           sodipodi:type="inkscape:box3dside"
           id="path30"
           style="fill:url(#linearGradient25);fill-opacity:1;fill-rule:evenodd;stroke:none;stroke-linejoin:round"
           inkscape:box3dsidetype="5"
           d="M 160.29697,80.322371 19.574414,113.87332 62.147142,117.3356 190.16681,105.31516 Z"
           points="19.574414,113.87332 62.147142,117.3356 190.16681,105.31516 160.29697,80.322371 " />
        <path
           sodipodi:type="inkscape:box3dside"
           id="path29"
           style="fill:url(#linearGradient26);fill-opacity:1;fill-rule:evenodd;stroke:none;stroke-width:1.0598;stroke-linejoin:round"
           inkscape:box3dsidetype="6"
           d="M 160.29697,80.322371 V 159.32868 L 190.16681,144.7026 V 105.31516 Z"
           points="160.29697,159.32868 190.16681,144.7026 190.16681,105.31516 160.29697,80.322371 " />
        <path
           sodipodi:type="inkscape:box3dside"
           id="path31"
           style="fill:url(#linearGradient27);fill-opacity:1;fill-rule:evenodd;stroke:none;stroke-linejoin:round"
           inkscape:box3dsidetype="3"
           d="M 160.29697,80.322371 19.574414,113.87332 v 21.20196 l 140.722556,24.2534 z"
           points="19.574414,113.87332 19.574414,135.07528 160.29697,159.32868 160.29697,80.322371 " />
      </g>
      <path
         style="fill:#8948db;stroke-width:0.264999"
         d="m 130.05166,79.273058 c 2.17513,2.37542 3.97877,5.058843 5.84502,7.671596 0.76558,1.07181 1.48853,2.17418 2.19188,3.28782 3.11478,4.93173 6.39182,10.050436 4.74908,16.073796 -0.26172,0.95963 -0.85134,2.76292 -2.19188,2.92251 -4.60122,0.54777 -9.25106,0.56814 -13.88192,0.73063 -2.31223,0.0811 -4.63181,0.14432 -6.94096,0 -1.59853,-0.0999 -3.16148,-0.51895 -4.74908,-0.73063 -0.2414,-0.0322 -0.73062,-0.24354 -0.73062,0 0,0.24354 0.51074,-0.10471 0.73062,0 2.36057,1.12408 4.72384,2.26743 6.94096,3.65314 2.66488,1.66555 5.06558,3.72348 7.67159,5.4797 2.99728,2.01991 6.11766,3.85194 9.13284,5.84502 4.16989,2.75637 8.3082,5.56088 12.42066,8.40221 19.0662,13.17301 -2.96858,-1.51255 14.61255,9.86347 5.58103,3.61125 5.4797,5.85447 5.4797,3.28783"
         id="path1" />
      <path
         style="fill:#04cfef;fill-opacity:1;stroke-width:0.165685"
         d="m 56.980484,102.37995 c 6.46797,-1.43127 13.47473,1.03306 19.49405,2.81878 5.99262,1.77781 6.92731,2.02752 12.47618,4.42952 0.94179,0.40768 3.05675,1.16257 3.63888,2.21475 0.10237,0.18507 0,0.40269 0,0.60403 0,0.67114 0.15967,1.35378 0,2.01342 -1.41204,5.83364 -4.74233,9.83129 -8.8373,15.30196 -6.75579,9.02542 -15.28159,18.65492 -23.65276,26.77842 -4.81359,4.67116 -9.84081,9.59938 -16.63493,12.68453 -0.44846,0.20365 -1.04491,0.057 -1.55952,0 -0.12129,-0.0134 -0.2781,-0.10746 -0.25992,-0.20134 0.24955,-1.28869 -0.12741,-2.88699 1.03968,-3.82549 8.13153,-6.53886 16.65955,-12.90354 26.25198,-18.12075 6.8502,-3.72573 14.76406,-6.20446 22.6131,-8.45634 21.884006,-6.27849 44.879166,-8.255 68.099196,-8.255 0.0866,0 -0.17387,-0.008 -0.25992,0 -1.38746,0.12645 -2.78368,0.2115 -4.15874,0.40269 -10.13692,1.40939 -3.5976,1.23224 -17.93451,2.81877 -2.06026,0.22799 -4.1586,0.1369 -6.23809,0.20134 -0.0866,0.003 -0.20446,0.0515 -0.25993,0 -2.19238,-2.03794 -3.08164,-4.86622 -4.41864,-7.2483 -1.17506,-2.09354 -2.38808,-4.17455 -3.6389,-6.24159 -0.052,-0.0859 -0.22117,-0.11129 -0.25991,-0.20134 -0.32081,-0.74553 1.35134,-1.52937 1.55952,-2.21476 0.23895,-0.78667 0.20205,-1.60918 0.25991,-2.41609 0.0289,-0.40207 0.20479,-0.83793 0,-1.20805 -1.20354,-2.17538 -10.57398,-7.67213 -11.69641,-8.45635 -6.96725,-4.8679 -5.43814,-3.77551 -10.65675,-9.261698 -2.168972,-2.28019 -4.234152,-4.62147 -6.498002,-6.84561 -1.29191,-1.26925 -2.758844,-2.4256 -4.158754,-3.624153 -0.24662,-0.21115 -0.45098,-0.73137 -0.77976,-0.60403 -0.51984,0.20134 -0.53039,0.80138 -0.77976,1.20805 -1.39686,2.277993 -2.78196,4.560313 -4.15873,6.845613 -1.77631,2.94854 -4.28282,6.880018 -5.45833,10.067068 -0.89535,2.42747 -1.03969,5.13433 -1.03969,7.65098 0,0.70465 -0.088,1.33972 0.25993,2.01342 0.43259,0.83774 1.94382,3.4228 3.37897,3.4228"
         id="path8" />
      <path
         style="fill:#082bff;fill-opacity:1;stroke-width:0.265;stroke-dasharray:none"
         d="m 49.515563,114.01761 c -0.53118,-2.02953 -1.7554,-3.99694 -1.59355,-6.08856 0.61853,-7.993318 4.86621,-12.914228 10.49661,-18.265678 4.45903,-4.238102 9.29334,-8.082311 14.23798,-11.742221 4.33096,-3.20568 8.91695,-6.06295 13.54513,-8.822199 3.89025,-2.31931 7.93898,-4.366211 11.986231,-6.399201 1.23529,-0.62051 2.547476,-2.02929 3.845286,-1.55321 0.98212,0.36028 -1.53197,1.42552 -2.321026,2.11236 -18.859071,16.41582 -22.687411,17.60552 -36.512961,35.972201 -2.54787,3.384738 -7.3854,6.712778 -6.58204,10.872428 0.55204,2.85831 5.89234,0.89905 8.72986,0.24851 2.94151,-0.67437 5.31794,-2.86582 8.07165,-4.10046 3.76465,-1.6879 7.48034,-3.59591 11.46659,-4.65961 9.16887,-2.446628 15.720127,0.10622 12.1248,10.93456 -1.30053,3.9169 -3.64913,7.4287 -5.92383,10.87243 -3.07445,4.65449 -6.64979,8.95937 -10.0809,13.35756 -10.74533,13.35068 -9.71527,11.95478 -19.19182,24.10574 -0.23245,0.29804 0.50529,-0.56403 0.72748,-0.8698 2.11096,-2.90497 4.19921,-5.82651 6.27026,-8.76007 11.22583,-15.90094 7.58965,-10.79962 16.97471,-24.54064 1.20553,-1.76506 2.08582,-3.81078 3.63744,-5.28089 1.76844,-1.67554 2.83658,1.85988 4.46886,3.85194 1.81761,2.21826 3.580561,4.52431 5.750611,6.39921 6.412906,5.54064 14.481826,9.77495 23.141036,9.81625 2.20802,0.0105 4.41057,-0.34533 6.58204,-0.74554 0.77016,-0.14194 1.89771,-0.14026 2.18246,-0.86979 0.21064,-0.53966 -1.11823,-0.36386 -1.69747,-0.37277 -2.12609,-0.0327 -4.24945,0.16567 -6.37418,0.24851 -2.29794,0.28993 -4.57769,0.85717 -6.89381,0.86979 -1.5251,0.008 -4.07294,0.65541 -4.5035,-0.80766 -0.60426,-2.05331 1.17852,-4.24154 2.52889,-5.90218 13.67841,-16.82136 32.56979,-28.47994 51.51306,-38.395208 3.27057,-1.71188 6.66841,-3.22564 10.18483,-4.34897 0.38414,-0.12271 1.21843,0.55933 0.9007,0.80767 -36.30679,28.377748 -12.03518,5.78266 -45.13889,34.605388 -4.91496,4.27936 -21.19279,20.33843 -26.18956,25.03766 -0.48154,0.45287 -2.11591,1.58554 -1.59354,1.18044 9.16643,-7.10889 20.06196,-12.52696 30.10414,-18.14144 9.4995,-5.31108 19.5722,-11.39406 29.89628,-15.09715"
         id="path37" />
      <path
         style="display:inline;fill:#2726eb;fill-opacity:1;stroke-width:0.264583"
         d="m 51.272132,124.3309 c 12.53917,12.83391 -26.01666,3.95403 -26.70919,13.97885 -0.12792,1.85173 3.10134,2.23436 4.9192,2.60938 5.80644,1.19786 11.7459,1.76119 17.66756,2.05023 8.95025,0.43686 17.92386,-0.0807 26.88241,0.12425 18.64408,0.42659 35.245708,0.84117 53.522328,3.91407 10.27734,1.72797 20.80882,3.36066 29.51522,9.50562 0.76843,0.54237 0.71594,1.73959 1.07389,2.60938"
         id="path13" />
      <path
         style="font-size:25.4px;font-family:'CHOMPLEK SANITY';-inkscape-font-specification:'CHOMPLEK SANITY, Normal';display:inline;stroke-width:0.264583"
         d="m 37.928287,112.53162 v 13.843 l -3.302,-3.302 h -8.382 v -10.541 h -2.1336 v 21.8694 h 2.1336 v -10.541 h 8.0518 l 3.6322,3.6322 v 6.9088 h 2.1336 v -21.8694 z m 13.41118,6.6294 h -9.3726 v 9.8044 l 5.4356,5.4356 h 9.3726 v -9.8044 z m 3.302,14.4526 h -6.9088 l -3.6322,-3.6322 v -10.0076 h 6.9088 l 3.6322,3.6322 z m 6.17222,0.7874 v -23.3426 h -2.1336 v 23.3426 z m 4.03861,0 v -23.3426 h -2.1336 v 23.3426 z m 11.27761,-15.24 h -9.3726 v 9.8044 l 5.4356,5.4356 h 9.3726 v -9.8044 z m 3.302,14.4526 h -6.9088 l -3.6322,-3.6322 v -10.0076 h 6.9088 l 3.6322,3.6322 z m 21.971033,-14.5034 v 10.8712 l -3.632203,3.6322 h -4.1148 l 4.6228,-4.6482 v -9.8552 h -2.1336 v 10.8712 l -3.6322,3.6322 h -3.2766 l -3.6068,-3.6322 v -10.8712 h -2.159 v 9.8552 l 5.4356,5.4356 h 9.1948 l 5.435603,-5.4356 v -9.8552 z m 25.47618,-6.5786 v 13.843 l -3.302,-3.302 h -8.382 v -10.541 h -2.1336 v 21.8694 h 2.1336 v -10.541 h 8.0518 l 3.6322,3.6322 v 6.9088 h 2.1336 v -21.8694 z m 16.68777,6.6294 v 14.4526 h -6.8834 l -3.6322,-3.6322 v -10.8712 h -2.1336 v 9.8552 l 5.4356,5.4356 h 9.3726 v -15.24 z m 13.43662,0 h -9.3726 v 15.24 h 2.1336 v -14.4272 h 6.9088 l 3.6322,3.6322 v 10.795 h 2.1336 v -9.8044 z m 20.01523,7.62 v 3.2004 l -3.6322,3.6322 h -6.9088 v -13.6398 h 6.9342 v -0.8128 h -6.9342 v -8.1026 h -2.1336 v 23.3426 h 9.3726 l 5.4356,-5.4356 v -2.1844 z"
         id="text46"
         aria-label="Hollow Hunt" />
    </g>
  </g>
</svg>
